<svg xmlns="http://www.w3.org/2000/svg" width="1200" height="630" viewBox="0 0 1200 630" role="img" aria-labelledby="title desc">
	<title id="title">Lens Frontier</title>
	<desc id="desc">A quiet editorial share card for paper reading, benchmark notes, and opinions.</desc>
	<defs>
		<pattern id="grid" width="32" height="32" patternUnits="userSpaceOnUse">
			<path d="M32 0H0V32" fill="none" stroke="#171612" stroke-opacity=".05" stroke-width="1"/>
		</pattern>
		<filter id="softShadow" x="-20%" y="-20%" width="140%" height="140%">
			<feDropShadow dx="0" dy="18" stdDeviation="26" flood-color="#171612" flood-opacity=".12"/>
		</filter>
	</defs>
	<rect width="1200" height="630" fill="#f6f2e8"/>
	<rect width="1200" height="630" fill="url(#grid)"/>
	<rect x="58" y="58" width="1084" height="514" rx="0" fill="#eee7d8" stroke="#171612" stroke-width="2" filter="url(#softShadow)"/>
	<rect x="92" y="92" width="82" height="82" fill="#171612"/>
	<text x="133" y="143" fill="#f6f2e8" font-family="IBM Plex Mono, ui-monospace, monospace" font-size="25" text-anchor="middle" font-weight="700">LF</text>
	<text x="198" y="126" fill="#676258" font-family="IBM Plex Mono, ui-monospace, monospace" font-size="17" font-weight="600" letter-spacing="3">LENS FRONTIER</text>
	<path d="M198 154H382" stroke="#171612" stroke-width="2"/>
	<text x="92" y="305" fill="#171612" font-family="IBM Plex Serif, Georgia, serif" font-size="92" font-weight="650">Lens Frontier</text>
	<text x="96" y="366" fill="#514d45" font-family="PingFang SC, Noto Sans CJK SC, IBM Plex Sans, sans-serif" font-size="34" font-weight="500">论文阅读与 Benchmark 观察</text>
	<path d="M96 454H642" stroke="#171612" stroke-width="2"/>
	<text x="96" y="512" fill="#1d4ed8" font-family="IBM Plex Mono, ui-monospace, monospace" font-size="24" font-weight="700" letter-spacing="4">PAPERS / BENCHMARKS / OPINIONS</text>
	<g transform="translate(782 123)">
		<rect x="0" y="0" width="266" height="330" fill="#f6f2e8" stroke="#171612" stroke-width="2"/>
		<path d="M32 47H232" stroke="#171612" stroke-width="2"/>
		<path d="M32 106H198" stroke="#aaa292" stroke-width="2"/>
		<path d="M32 160H226" stroke="#aaa292" stroke-width="2"/>
		<path d="M32 214H176" stroke="#aaa292" stroke-width="2"/>
		<path d="M32 268H212" stroke="#aaa292" stroke-width="2"/>
		<circle cx="32" cy="47" r="7" fill="#1d4ed8"/>
		<circle cx="32" cy="106" r="7" fill="#88a84a"/>
		<circle cx="32" cy="160" r="7" fill="#b64d3c"/>
		<circle cx="32" cy="214" r="7" fill="#171612"/>
		<circle cx="32" cy="268" r="7" fill="#676258"/>
		<text x="195" y="304" fill="#676258" font-family="IBM Plex Mono, ui-monospace, monospace" font-size="16" font-weight="600" text-anchor="end">FIELD NOTES</text>
	</g>
	<rect x="1017" y="471" width="48" height="48" fill="#1d4ed8"/>
	<rect x="1078" y="471" width="24" height="48" fill="#b64d3c"/>
</svg>
