<svg xmlns="http://www.w3.org/2000/svg" width="1200" height="630" viewBox="0 0 1200 630" role="img" aria-labelledby="title desc">
	<title id="title">Lens Frontier</title>
	<desc id="desc">Paper notes, benchmark observations, and modest arguments around evaluation.</desc>
	<rect width="1200" height="630" fill="#f7f5ee"/>
	<path d="M0 0H1200V630H0z" fill="url(#grid)"/>
	<rect x="74" y="74" width="1052" height="482" fill="#ede8dc" stroke="#171612" stroke-width="2"/>
	<rect x="104" y="104" width="122" height="122" fill="#171612"/>
	<text x="165" y="177" fill="#f7f5ee" font-family="IBM Plex Mono, monospace" font-size="34" text-anchor="middle" font-weight="600">LF</text>
	<text x="104" y="312" fill="#171612" font-family="IBM Plex Serif, Georgia, serif" font-size="82" font-weight="650">Lens Frontier</text>
	<text x="108" y="376" fill="#676258" font-family="IBM Plex Sans, sans-serif" font-size="30">paper notes / benchmark observations / modest arguments</text>
	<path d="M104 452H654" stroke="#171612" stroke-width="2"/>
	<text x="104" y="505" fill="#1c55d9" font-family="IBM Plex Mono, monospace" font-size="22" font-weight="600" letter-spacing="4">PAPERS BENCHMARKS OPINIONS</text>
	<g stroke="#aaa292" stroke-width="2">
		<path d="M846 148H1036"/>
		<path d="M846 204H1100"/>
		<path d="M846 260H992"/>
		<path d="M846 316H1064"/>
		<path d="M846 372H1018"/>
	</g>
	<circle cx="806" cy="148" r="8" fill="#1c55d9"/>
	<circle cx="806" cy="204" r="8" fill="#88b04b"/>
	<circle cx="806" cy="260" r="8" fill="#b64d3c"/>
	<circle cx="806" cy="316" r="8" fill="#171612"/>
	<circle cx="806" cy="372" r="8" fill="#676258"/>
	<defs>
		<pattern id="grid" width="28" height="28" patternUnits="userSpaceOnUse">
			<path d="M28 0H0V28" fill="none" stroke="#171612" stroke-opacity=".055" stroke-width="1"/>
		</pattern>
	</defs>
</svg>
